{"title":"Dhobi Ghaat (2011) New Scam_TheAaax9","uid":6118010,"size":579025149,"categoryP":"video","categoryS":"movies","magnet":"?xt=urn:btih:11a127f797696c152a177d492764d842922d6496&amp;dn=Dhobi+Ghaat+%282011%29+New+Scam_TheAaax9&amp;tr=udp%3A%2F%2Ftracker.openbittorrent.com%3A80&amp;tr=udp%3A%2F%2Fopen.demonii.com%3A1337&amp;tr=udp%3A%2F%2Ftracker.coppersurfer.tk%3A6969&amp;tr=udp%3A%2F%2Fexodus.desync.com%3A6969","seeders":0,"leechers":0,"uploader":"TheAaax9","files":-1,"time":1295640247,"description":"                                 $$TheAaax9$$\n                                --------------\n\n++++++++++++++++++++++++++++++++++++++++++++++++++++++++++++++++++++++++++\n\nPresent by TheAaax9\n--------------------\n\nScreenShot All in one :-\n &lt;a href=&quot;\nhttp://shareimage.org/images/go4hd27sh7fbngqh2ry.jpg&quot; rel=&quot;nofollow&quot; target=&quot;_NEW&quot;&gt;\nhttp://shareimage.org/images/go4hd27sh7fbngqh2ry.jpg&lt;/a&gt;\n\n========================================================================== \n\nGeneral\nComplete name                    : Dhobi Ghaat (2011) New Scam_TheAaax9.mpg\nFormat                           : MPEG-PS\nFile size                        : 552 MiB\nDuration                         : 1h 32mn\nOverall bit rate                 : 830 Kbps\n\nVideo\nID                               : 224 (0xE0)\nFormat                           : MPEG Video\nFormat version                   : Version 2\nFormat settings, Matrix          : Default\nDuration                         : 1h 32mn\nBit rate mode                    : Constant\nBit rate                         : 733 Kbps\nNominal bit rate                 : 1 150 Kbps\nWidth                            : 352 pixels\nHeight                           : 288 pixels\nDisplay aspect ratio             : 1.222\nFrame rate                       : 25.000 fps\nScan type                        : Progressive\nBits/(Pixel*Frame)               : 0.289\nStream size                      : 487 MiB (88%)\n\nAudio\nID                               : 192 (0xC0)\nFormat                           : MPEG Audio\nFormat version                   : Version 1\nFormat profile                   : Layer 2\nDuration                         : 1h 32mn\nBit rate mode                    : Constant\nBit rate                         : 64.0 Kbps\nChannel(s)                       : 2 channels\nSampling rate                    : 48.0 KHz\nResolution                       : 16 bits\nStream size                      : 42.6 MiB (8%)\n\n==========================================================================\n\nPresent by TheAaax9\n--------------------\n\nScreenShot All in one :-\n &lt;a href=&quot;\nhttp://shareimage.org/images/go4hd27sh7fbngqh2ry.jpg&quot; rel=&quot;nofollow&quot; target=&quot;_NEW&quot;&gt;\nhttp://shareimage.org/images/go4hd27sh7fbngqh2ry.jpg&lt;/a&gt;\n\n++++++++++++++++++++++++++++++++++++++++++++++++++++++++++++++++++++++++++\n\n                                 $$TheAaax9$$\n                                --------------","torrent":{"xt":"urn:btih:11a127f797696c152a177d492764d842922d6496","amp;dn":"Dhobi+Ghaat+%282011%29+New+Scam_TheAaax9","amp;tr":["udp%3A%2F%2Ftracker.openbittorrent.com%3A80","udp%3A%2F%2Fopen.demonii.com%3A1337","udp%3A%2F%2Ftracker.coppersurfer.tk%3A6969","udp%3A%2F%2Fexodus.desync.com%3A6969"],"infoHash":"11a127f797696c152a177d492764d842922d6496","infoHashBuffer":{"type":"Buffer","data":[17,161,39,247,151,105,108,21,42,23,125,73,39,100,216,66,146,45,100,150]},"announce":[],"urlList":[]}}